<svg fill="#FFFFFF" xmlns="http://www.w3.org/2000/svg" xmlns:xlink="http://www.w3.org/1999/xlink" version="1.1" x="0px" y="0px" viewBox="0 0 100 100" enable-background="new 0 0 100 100" xml:space="preserve"><path d="M45.6015167,50.0624924c0,1.3907471-1.1273804,2.5181885-2.5181274,2.5181885s-2.5181885-1.1274414-2.5181885-2.5181885  c0-1.390686,1.1274414-2.5181274,2.5181885-2.5181274S45.6015167,48.6718063,45.6015167,50.0624924z M66.3457184,47.5443649  c-1.390686,0-2.5181274,1.1274414-2.5181274,2.5181274c0,1.3907471,1.1274414,2.5181885,2.5181274,2.5181885  c1.3907471,0,2.5181885-1.1274414,2.5181885-2.5181885C68.8639069,48.6718063,67.7364655,47.5443649,66.3457184,47.5443649z   M85.2595367,49.6552658c0,0-0.5671387-0.1273804-1.5066528-0.3994751  c-1.5198975,7.9022217-6.1904297,14.6949463-12.6535645,19.0123901c1.4588623,1.3098145,2.2587891,2.8104248,2.2587891,4.3972778  c0,0.012085-0.0046387,0.0227051-0.005127,0.034668c5.1451416,4.9883423,8.3597412,12.0084229,8.3597412,19.7801514h-2  c0-5.9057617-2.0026855-11.3423462-5.3473511-15.6593018c0.0219727,0.111084,0.0337524,0.2258301,0.0337524,0.3435059v0.9443359  c0,0.0432129-0.0142212,0.0820923-0.0172729,0.1245117l0.7996216,0.8240967  c1.1787109,1.2138672,1.8134766,2.8203125,1.7880859,4.5234375c-0.0253906,1.7021484-0.7089844,3.2890625-1.9238281,4.4677734  l-2.8222656,2.7392578c-1.2333984,1.1962891-2.8310547,1.7919922-4.4277344,1.7919922  c-1.6601563,0-3.3193359-0.6445313-4.5644531-1.9277344l-5.3789063-5.543335h-6.2753906l-5.3789063,5.543335  c-1.2451172,1.2832031-2.9042969,1.9277344-4.5644531,1.9277344c-1.5966797,0-3.1943359-0.5957031-4.4277344-1.7919922  l-2.8232422-2.7392578c-1.2148438-1.1787109-1.8974609-2.765625-1.9228516-4.4677734  c-0.0253906-1.703125,0.609375-3.3095703,1.7871094-4.5234375l0.8002319-0.8247681  c-0.0030518-0.0421753-0.0171509-0.0808716-0.0171509-0.1238403v-0.9443359c0-0.1179199,0.0119019-0.2328491,0.0339966-0.3441772  c-3.3452168,4.3170776-5.3483295,9.7539063-5.3483295,15.6599731h-2c0-7.7719727,3.2148438-14.7922363,8.3604145-19.7806396  c-0.0004883-0.0117798-0.0050659-0.0222778-0.0050659-0.0341797c0-1.5818481,0.8141479-3.0796509,2.2712402-4.3894653  c-7.9528217-5.3069458-13.2037373-14.3583984-13.2037373-24.6160278c0-0.8451538,0.0440674-1.6797485,0.1138916-2.5071411  c-4.867981,0.3500366-8.3091431,0.1787109-8.3091431,0.1787109l3.6294556-2.9312744  c-4.0753784-0.7797241-6.6766348-5.2015381-6.6766348-5.2015381c7.6692495,1.729187,8.2381582-2.9110107,9.1156607-6.1755371  c0.6743164-2.5071411,2.6571045-6.7961426,4.2794189-8.7744141C43.6839142-1.7376792,65.124588,12.0624914,65.124588,12.0624914  S91.0543976,8.7990026,85.2595367,49.6552658z M52.0886993,81.2732468  c-0.2382813-0.2285156-0.6181641-0.2236328-0.8525391,0.0136719l-0.7973022,0.8218994l-0.9700317,1l-1.2375488,1.2757568  c-0.2070313,0.2128906-0.5058594,0.2988281-0.7998047,0.2373047c-0.2890625-0.0664063-0.5234375-0.2783203-0.6171875-0.5605469  c-0.0968018-0.2923584-0.0592651-0.7196655,0.1453857-0.9525146c0.0059204-0.0067139,0.008606-0.0167236,0.0147705-0.0230713  l0.947876-0.9769287l3.4173584-3.5220947c0.0564575-0.0579224,0.098999-0.1258545,0.1275635-0.199585  c0.027771-0.0716553,0.0423584-0.1487427,0.0413818-0.2281494c-0.0029297-0.1621094-0.0673828-0.3134766-0.1816406-0.4248047  c-0.1142578-0.1103516-0.2890625-0.1777344-0.4277344-0.1679688c-0.1621094,0.0029297-0.3134766,0.0673828-0.4248047,0.1816406  l-0.6201782,0.6392822l-3.305603,3.4075928c-0.1572266,0.1621094-0.3730469,0.2548828-0.5986328,0.2578125  c-0.2275391,0.0097656-0.4433594-0.0830078-0.6044922-0.2412109l-0.0761719-0.0742188  c-0.3359375-0.3271484-0.34375-0.8642578-0.0175781-1.2001953l2.0861206-2.1497803l1.4555664-1.5l1.1624146-1.197876  c0.2314453-0.2382813,0.2255859-0.6210938-0.0126953-0.8535156c-0.2382813-0.2285156-0.6191406-0.2236328-0.8515625,0.0136719  l-1.977356,2.0377197l-1.4556274,1.5l-1.2711182,1.3099365c-0.3261719,0.3359375-0.8632813,0.3466797-1.1992188,0.0205078  l-0.0761719-0.0732422c-0.1630859-0.15625-0.2568359-0.3710938-0.2607422-0.5976563  c-0.0039063-0.2255859,0.0820313-0.4443359,0.2392578-0.6064453l0.0515137-0.0531006l1.4555054-1.5l2.4197388-2.4937744  c0.2275391-0.234375,0.2216797-0.625-0.0126953-0.8535156c-0.1123047-0.1074219-0.2607422-0.1669922-0.4189453-0.1669922  c-0.0039063,0-0.0068359,0-0.0097656,0c-0.1621094,0.0019531-0.3125,0.0664063-0.4228516,0.1806641l-3.2344971,3.3336182  l-1.1307373,1.1654053c-0.2216797,0.2285156-0.5537109,0.3095703-0.8544922,0.2226563  c-0.2841797-0.0859375-0.5625-0.3291016-0.6367188-0.6162109c-0.0698853-0.2676392-0.0487671-0.5604248,0.1188965-0.7718506  c0.0128174-0.0161133,0.0198364-0.0353394,0.0344238-0.050415l1.140625-1.1757813  c0.1113281-0.1142578,0.171875-0.2666016,0.1689453-0.4287109c-0.0019531-0.1621094-0.0664063-0.3125-0.1806641-0.4228516  c-0.1171875-0.1132813-0.2685547-0.1699219-0.4208984-0.1699219c-0.1572266,0-0.3144531,0.0605469-0.4326172,0.1816406  l-2.0046387,2.06604l-1.4553833,1.5l-1.4203491,1.4638672l-0.378418,0.3900146  c-0.8613281,0.8886719-1.3261719,2.0654297-1.3066406,3.3144531c0.0185547,1.2480469,0.5175781,2.4111328,1.40625,3.2724609  l2.8232422,2.7392578c0.8720703,0.8457031,2.0205078,1.3095703,3.2421875,1.3095703c0.0234375,0,0.0478516,0,0.0722656-0.0009766  c1.2490234-0.0185547,2.4111328-0.5185547,3.2734375-1.4072266l4.2304077-4.3597412l1.9406738-2l0.9529419-0.9820557  c0.005188-0.0053101,0.0065918-0.0125122,0.0115356-0.0179443C52.3288116,81.8696213,52.3216705,81.5004807,52.0886993,81.2732468z   M55.9478912,83.1088181c-0.2330933-0.3016357-0.3911133-0.6422119-0.4541016-1h-1.55896  c-0.0628662,0.3579102-0.2205811,0.6984863-0.4534302,1H55.9478912z M56.2205353,78.1326218  c0.0071411-0.4519043,0.1448975-0.8799438,0.3902588-1.2454834h-3.7937622c0.3010254,0.4487915,0.4245605,0.9802856,0.3753052,1.5  h3.046875C56.2312164,78.3026047,56.2193146,78.2188034,56.2205353,78.1326218z M70.7072296,76.8871384l-2.0042725-2.06604  c-0.2265625-0.2333984-0.6181641-0.2392578-0.8525391-0.0126953c-0.1142578,0.1113281-0.1787109,0.2617188-0.1806641,0.4238281  c-0.0029297,0.1621094,0.0576172,0.3144531,0.1679688,0.4287109l1.140625,1.1757813  c0.0148315,0.0153198,0.0239868,0.0341797,0.0374756,0.050415c0.1760864,0.2114258,0.2450562,0.4935913,0.1724854,0.762085  c-0.0771484,0.2890625-0.3017578,0.5166016-0.5898438,0.5976563c-0.2988281,0.0830078-0.7392578,0.0292969-0.9570313-0.1943359  l-1.1307373-1.1654053l-3.2344971-3.3336182c-0.2285156-0.2363281-0.6132813-0.2451172-0.8515625-0.0126953  c-0.234375,0.2275391-0.2402344,0.6181641-0.0136719,0.8525391l2.4203491,2.4937744l1.4558716,1.5l0.0515137,0.0531006  c0.1572266,0.1621094,0.2431641,0.3808594,0.2392578,0.6064453c-0.0039063,0.2265625-0.0976563,0.4414063-0.2607422,0.5976563  l-0.0761719,0.0732422c-0.3369141,0.3242188-0.8730469,0.3144531-1.1992188-0.0205078l-1.2711182-1.3099365l-1.4556274-1.5  l-1.977356-2.0377197c-0.2314453-0.2373047-0.6142578-0.2431641-0.8515625-0.0126953  c-0.1142578,0.1113281-0.1787109,0.2617188-0.1816406,0.4228516c-0.0019531,0.1621094,0.0576172,0.3154297,0.1689453,0.4296875  l1.1624146,1.197876l1.4555664,1.5l2.0861206,2.1497803c0.3261719,0.3359375,0.3183594,0.8730469-0.0175781,1.2001953  l-0.0761719,0.0742188c-0.1611328,0.1582031-0.3769531,0.2451172-0.6044922,0.2412109  c-0.2255859-0.0029297-0.4414063-0.0957031-0.5986328-0.2578125l-3.3064575-3.4075928l-0.6203003-0.6392822  c-0.1103516-0.1142578-0.2617188-0.1787109-0.4238281-0.1816406c-0.1933594-0.015625-0.3134766,0.0576172-0.4277344,0.1679688  c-0.1142578,0.1123047-0.1787109,0.2626953-0.1816406,0.4238281c-0.0009766,0.0799561,0.0136108,0.1573486,0.0413208,0.229126  c0.0284424,0.0737915,0.0707397,0.1416626,0.1266479,0.199585l3.4181519,3.5220947l0.9480591,0.9769287  c0.0067749,0.006958,0.010437,0.0159302,0.0169067,0.0230713c0.2052612,0.2266846,0.2759399,0.5457153,0.1793823,0.8372803  c-0.09375,0.2822266-0.3466797,0.5517578-0.6357422,0.6181641c-0.2880859,0.0664063-0.609375,0.0332031-0.8173828-0.1796875  l-1.2379761-1.2757568l-0.9703369-1l-0.7975464-0.8218994c-0.1181641-0.1210938-0.2753906-0.1826172-0.4326172-0.1826172  c-0.1513672,0-0.3027344,0.0566406-0.4199219,0.1699219c-0.2329712,0.2253418-0.2391968,0.5945435-0.0231934,0.8345947  c0.0049438,0.0054321,0.0063477,0.0126343,0.0114746,0.0179443l0.9529419,0.9820557l1.9406738,2l4.2304077,4.3597412  c0.8623047,0.8886719,2.0244141,1.3886719,3.2734375,1.4072266c1.2919922,0.015625,2.4257813-0.4462891,3.3144531-1.3085938  l2.8222656-2.7392578c0.8886719-0.8623047,1.3886719-2.0244141,1.4072266-3.2724609  c0.0185547-1.2490234-0.4453125-2.4257813-1.3085938-3.3144531l-0.3751831-0.3867798l-1.4232788-1.4671021L70.7072296,76.8871384z   M70.9607697,70.6289597c-0.3399048-0.4932251-0.8011475-0.9698486-1.3687744-1.4230347  c-0.5134888-0.4099731-1.1146851-0.7997437-1.7961426-1.1641235c-1.3449707-0.7191772-2.994873-1.3394775-4.8937988-1.8109131  c-0.027771,0.045166-0.0618286,0.0848999-0.0910645,0.1288452c-0.454834,0.6831665-1.083252,1.2158203-1.8143921,1.5531616  c-0.5675049,0.2618408-1.1920776,0.4117432-1.8464966,0.4117432c-0.4031982,0-0.7949829-0.0737915-1.1763306-0.1818237  c0.0405884,0.1833496,0.0645752,0.385376,0.0645752,0.5998535c0,0.8045044-0.3181152,1.456604-0.7105103,1.456604  s-0.7105103-0.6520996-0.7105103-1.456604c0-0.4284058,0.0918579-0.8096924,0.2354736-1.0762329  c-0.2241211-0.138916-0.437561-0.2975464-0.6362915-0.4765625c-0.7689209,0.1970215-1.5631104,0.1651611-2.3200684-0.0684204  c-0.1369629,0.0045166-0.2752075,0.0039063-0.4116211,0.0106201c-0.3014526,0.1897583-0.6194458,0.3469238-0.9528809,0.4593506  c0.1690063,0.2662964,0.2797852,0.680481,0.2797852,1.1512451c0,0.8045044-0.3180542,1.456604-0.7104492,1.456604  s-0.7105103-0.6520996-0.7105103-1.456604c0-0.3649292,0.067749-0.694458,0.1759644-0.9500732  c-0.1385498,0.0135498-0.2765503,0.0320435-0.416626,0.0320435c-0.4737549,0-0.9326172-0.0825195-1.3676147-0.2258301  c-0.8476563-0.2792358-1.5947266-0.8109131-2.1407471-1.5387573c-0.0194702-0.0259399-0.0420532-0.0488281-0.0609741-0.0752563  c-2.3356934,0.4874878-4.3596191,1.1987915-5.9537964,2.0537109c-0.6793213,0.3643188-1.2799683,0.7547607-1.793335,1.1652832  c-0.5635986,0.4506836-1.0157471,0.9261475-1.3555908,1.4169922c-0.2699585,0.3899536-0.4730225,0.7889404-0.5877075,1.1950684  h2.3380127h5.4401855H45.8069h1.5706787H62.049942h1.5738525h0.1370239h5.4398193h2.3381348  C71.4251862,71.4128342,71.2276764,71.0162888,70.9607697,70.6289597z M81.9256134,48.6809006  c-5.7740479-1.9514771-17.1804199-7.0817261-18.774231-17.5311279c-9.0546265,10.260437-21.6174927,8.505249-21.6174927,8.505249  c0.7207642-0.1339111,3.0055542-1.9267578,5.4597778-4.0013428c-6.0695801,3.3526001-13.7467041,4.7611694-19.8236713,5.3380737  c-0.0844727,0.87854-0.1311035,1.7679443-0.1311035,2.6682129c0,9.8404541,5.1663837,18.4915771,12.9249287,23.3999023  c1.7469482-1.098999,4.0200195-1.9993896,6.6995239-2.6118774c-0.5582275-0.4182129-0.9017944-0.9351196-0.9017944-1.5731812  c0-0.4697266,0.3798828-0.8496094,0.8496094-0.8496094s0.8496094,0.3798828,0.8496094,0.8496094  c0.1503906,0.3955078,2.3349609,1.4609375,6.5839844,1.4609375c3.5811768,0,6.409668-0.940918,7.1098022-1.5620117  l-0.3451538-0.4379883c-0.2900391-0.3691406-0.2265625-0.9033203,0.1416016-1.1943359  c0.3701172-0.2910156,0.9033203-0.2265625,1.1943359,0.1416016l0.5882568,0.74646l0.0490723,0.0622559l0.7025146,0.8914795  c0.2900391,0.3691406,0.2265625,0.9033203-0.1416016,1.1943359c-0.15625,0.1220703-0.3417969,0.1816406-0.5253906,0.1816406  c-0.2311401,0-0.4530029-0.1036987-0.6188965-0.2833862c-0.7279663,0.5968628-1.8865967,1.0525513-3.1987915,1.373291  c-0.5698242,0.1392822-1.1656494,0.2526855-1.7677002,0.3416138c0.5130615,0.5257568,1.1965942,0.8347168,1.9172974,0.8347168  c0.7178955,0,1.3822021-0.2837524,1.87677-0.7617798c0.2677002-0.2587891,0.487793-0.5720825,0.6349487-0.9335327  c0.15625-0.3837891,0.5664063-0.6025391,0.9736328-0.5087891c2.7525024,0.6177368,5.0626831,1.5285645,6.8317871,2.6374512  C75.8726959,63.0057907,80.5043488,56.4007492,81.9256134,48.6809006z M62.5543976,67.2860641  c-0.2939453,0-0.5462036,0.3660889-0.6542358,0.8879395c-0.0361938,0.1747437-0.0562744,0.3668823-0.0562744,0.5686646  c0,0.8025513,0.3165894,1.4528809,0.7077637,1.4560547c0.0009155,0,0.00177,0.0005493,0.0027466,0.0005493  c0.0621338,0,0.1213379-0.0215454,0.178772-0.0522461c0.3052979-0.163269,0.5317383-0.7272339,0.5317383-1.4043579  c0-0.0390625-0.0041504-0.0758057-0.0056152-0.1140747C63.230423,67.8783493,62.9277496,67.2860641,62.5543976,67.2860641z   M46.8747101,67.2860641c-0.3733521,0-0.6760254,0.5923462-0.704895,1.3425903  c-0.0014648,0.038269-0.0056152,0.0749512-0.0056152,0.1140137c0,0.6769409,0.2263794,1.2407837,0.5315552,1.4042358  c0.0574951,0.0307617,0.1167603,0.0523682,0.1789551,0.0523682c0.0009766,0,0.0019531-0.0006104,0.0029297-0.0006104  c0.3910522-0.0032959,0.7075195-0.6535034,0.7075195-1.4559937c0-0.2017822-0.0200806-0.3937988-0.0562744-0.5685425  C47.4208527,67.6522751,47.1686554,67.2860641,46.8747101,67.2860641z M64.5486603,61.0818405  c-0.4355469,0-0.7890625-0.3544922-0.7890625-0.7900391s0.3535156-0.7890625,0.7890625-0.7890625  s0.7900391,0.3535156,0.7900391,0.7890625S64.9842072,61.0818405,64.5486603,61.0818405z M64.7595978,60.2918015  c0-0.1162109-0.0947266-0.2099609-0.2109375-0.2099609s-0.2099609,0.09375-0.2099609,0.2099609  C64.3386993,60.5242233,64.7595978,60.5242233,64.7595978,60.2918015z M66.9129181,63.2039108  c0,0.7099609-0.5771484,1.2871094-1.2871094,1.2871094s-1.2871094-0.5771484-1.2871094-1.2871094  s0.5771484-1.2871094,1.2871094-1.2871094S66.9129181,62.4939499,66.9129181,63.2039108z M65.9129181,63.2039108  c0-0.1582031-0.1289063-0.2871094-0.2871094-0.2871094s-0.2871094,0.1289063-0.2871094,0.2871094  s0.1289063,0.2871094,0.2871094,0.2871094S65.9129181,63.362114,65.9129181,63.2039108z"></path></svg>