<svg xmlns="http://www.w3.org/2000/svg" width="30" height="30" viewBox="0 0 30 30">
    <g fill="none" fill-rule="evenodd">
        <circle cx="15" cy="15" r="15" fill="#667480"/>
        <path fill="#FFF" fill-rule="nonzero" d="M12.464 15.04a.593.593 0 1 1-1.185 0 .593.593 0 0 1 1.185 0zm4.884-.593a.593.593 0 1 0 0 1.185.593.593 0 0 0 0-1.185zm4.453.496s-.133-.03-.355-.094a6.978 6.978 0 0 1-2.979 4.477c.344.308.532.661.532 1.035l-.001.008a6.47 6.47 0 0 1 1.968 4.657h-.47c0-1.39-.472-2.67-1.26-3.687a.416.416 0 0 1 .008.081v.222c0 .01-.003.02-.004.03l.189.194c.277.285.426.664.42 1.065-.005.4-.166.774-.452 1.051l-.665.645c-.29.282-.666.422-1.042.422-.391 0-.782-.151-1.075-.454L15.35 23.29H13.87l-1.266 1.305a1.493 1.493 0 0 1-1.075.454c-.376 0-.752-.14-1.042-.422l-.665-.645a1.486 1.486 0 0 1-.453-1.051c-.005-.401.144-.78.421-1.065l.189-.195c-.001-.01-.004-.019-.004-.029v-.222c0-.028.002-.055.008-.081a6.001 6.001 0 0 0-1.26 3.687h-.47a6.47 6.47 0 0 1 1.968-4.657l-.001-.008c0-.373.191-.725.534-1.034a6.961 6.961 0 0 1-3.081-6.385c-1.146.082-1.957.042-1.957.042l.855-.69C5.612 12.11 5 11.069 5 11.069c1.806.407 1.94-.685 2.146-1.454.159-.59.626-1.6 1.008-2.066 3.859-4.705 8.907-1.456 8.907-1.456s6.104-.768 4.74 8.85zm-7.81 7.444a.143.143 0 0 0-.2.004l-.188.193-.228.236-.291.3a.2.2 0 0 1-.334-.076c-.023-.07-.014-.17.034-.224l.004-.006.223-.23.804-.83a.139.139 0 0 0 .04-.1.142.142 0 0 0-.043-.1.142.142 0 0 0-.2.003l-.146.15-.779.803a.2.2 0 0 1-.283.004l-.018-.017a.2.2 0 0 1-.004-.283l.491-.506.343-.353.274-.282a.142.142 0 0 0-.003-.201.143.143 0 0 0-.2.003l-.466.48-.343.353-.3.308a.2.2 0 0 1-.282.005l-.018-.017a.2.2 0 0 1-.005-.284l.012-.012.343-.353.57-.587a.144.144 0 0 0-.003-.201.142.142 0 0 0-.099-.04h-.002a.14.14 0 0 0-.1.043l-.761.785-.266.274a.203.203 0 0 1-.202.053.225.225 0 0 1-.15-.146c-.016-.063-.01-.132.029-.181.003-.004.004-.009.008-.012l.268-.277a.14.14 0 0 0 .04-.1.14.14 0 0 0-.142-.14.142.142 0 0 0-.102.042l-.471.487-.343.353-.335.345-.089.091c-.202.21-.312.487-.307.78.004.294.122.568.33.771l.666.645c.205.2.475.308.763.308h.017c.294-.004.568-.122.77-.331l.996-1.027.457-.47.225-.232.002-.004a.142.142 0 0 0-.005-.197zm.91.433a.54.54 0 0 1-.108-.236h-.367a.539.539 0 0 1-.106.236h.58zm.064-1.172a.54.54 0 0 1 .091-.293h-.893c.071.105.1.23.089.353h.717c-.002-.02-.005-.04-.004-.06zm3.41-.293l-.472-.487a.144.144 0 0 0-.2-.003.14.14 0 0 0-.043.1.14.14 0 0 0 .04.101l.268.277c.004.003.006.008.009.012a.2.2 0 0 1-.098.32c-.07.02-.174.007-.226-.046l-.266-.274-.761-.785a.142.142 0 0 0-.2-.003.144.144 0 0 0-.004.2l.57.588.343.353.012.012a.2.2 0 0 1-.005.284l-.018.017a.2.2 0 0 1-.283-.005l-.299-.308-.343-.353-.465-.48a.142.142 0 1 0-.203.198l.273.282.343.353.49.506a.2.2 0 0 1-.003.283l-.018.017a.2.2 0 0 1-.283-.004l-.779-.802-.146-.15a.141.141 0 0 0-.1-.043c-.045-.004-.074.013-.1.04a.143.143 0 0 0-.004.2l.805.83.223.23c.002 0 .003.003.004.005a.2.2 0 0 1 .042.197.225.225 0 0 1-.15.145c-.067.016-.143.008-.192-.042l-.291-.3-.229-.236-.187-.193a.142.142 0 0 0-.201-.003.142.142 0 0 0-.005.196l.002.004.225.232.456.47.996 1.027c.203.209.477.327.771.331.304.004.571-.105.78-.308l.665-.645c.21-.203.327-.477.331-.77a1.088 1.088 0 0 0-.308-.78l-.088-.092-.335-.345-.343-.353zm.06-1.474a1.6 1.6 0 0 0-.322-.335 2.775 2.775 0 0 0-.423-.274 5.032 5.032 0 0 0-1.152-.426l-.022.03a1.031 1.031 0 0 1-1.139.42c.01.043.015.09.015.141 0 .19-.074.343-.167.343-.092 0-.167-.153-.167-.343 0-.1.022-.19.055-.253a1.05 1.05 0 0 1-.15-.112 1 1 0 0 1-.546-.016c-.032 0-.064 0-.097.002a1.055 1.055 0 0 1-.224.108c.04.063.066.16.066.271 0 .19-.075.343-.167.343-.093 0-.168-.153-.168-.343 0-.086.016-.163.042-.223-.033.003-.065.007-.098.007a1.033 1.033 0 0 1-.826-.415l-.015-.018a5.285 5.285 0 0 0-1.401.483 2.78 2.78 0 0 0-.422.275c-.133.106-.24.218-.32.333a.956.956 0 0 0-.138.282H18.57a.95.95 0 0 0-.135-.28zm2.581-5.167c-1.36-.46-4.045-1.667-4.42-4.127-2.131 2.415-5.09 2.002-5.09 2.002.17-.031.708-.454 1.286-.942-1.429.79-3.236 1.121-4.667 1.257a6.515 6.515 0 0 0 3.012 6.137c.411-.259.947-.47 1.577-.615-.131-.098-.212-.22-.212-.37a.2.2 0 1 1 .4 0c.036.093.55.344 1.55.344.843 0 1.51-.222 1.674-.368l-.081-.103a.2.2 0 0 1 .314-.248l.139.176.011.014.166.21a.2.2 0 0 1-.157.324.2.2 0 0 1-.146-.066c-.171.14-.444.247-.753.323-.134.033-.274.06-.416.08.12.124.282.197.451.197a.634.634 0 0 0 .592-.4.2.2 0 0 1 .229-.12c.648.146 1.192.36 1.608.622a6.53 6.53 0 0 0 2.933-4.327zm-4.56 4.38c-.07 0-.129.087-.154.21a.664.664 0 0 0-.014.133c0 .19.075.342.167.343a.09.09 0 0 0 .043-.012c.072-.039.125-.171.125-.33l-.001-.028c-.007-.176-.078-.316-.166-.316zm-3.692 0c-.088 0-.159.14-.166.316l-.001.027c0 .16.053.292.125.33a.09.09 0 0 0 .042.013c.093 0 .167-.154.167-.343a.663.663 0 0 0-.013-.134c-.025-.122-.085-.209-.154-.209zm4.161-1.46a.186.186 0 1 1 0-.372.186.186 0 0 1 0 .372zm.05-.186a.05.05 0 0 0-.1 0c0 .054.1.054.1 0zm.507.685a.303.303 0 1 1-.607 0 .303.303 0 0 1 .607 0zm-.236 0a.068.068 0 1 0-.135 0 .068.068 0 0 0 .135 0z"/>
    </g>
</svg>
