<svg xmlns="http://www.w3.org/2000/svg" width="150" height="30" viewBox="0 0 150 30">
    <path fill="#FFF" fill-rule="evenodd" d="M39.036 21.486c.994-2.794 1.397-5.566.634-8.525-1.795 2.379-2.064 6.915-.634 8.525zm-2.074-9.698c-1.299.1-2.226.837-2.996 1.793-1.364 1.692-2.215 3.647-2.813 5.72-.444 1.537-.695 3.095-.397 4.692.314 1.684 1.988 2.87 3.624 2.505 1.398-.311 2.479-1.13 3.249-2.281-3.466-3.997-2.536-8.177-.667-12.43zm101.674 3.776c-.045-.381-.075-.87-.162-1.346-.276-1.506-1.204-2.252-2.727-2.26-1.556-.008-2.698.768-3.695 1.863-1.368 1.503-2.004 3.358-2.536 5.256-.459 1.637-.69 3.298-.337 5 .285 1.373 1.148 2.065 2.549 2.005 1.08-.047 1.957-.558 2.776-1.199 1.199-.938 1.955-2.208 2.561-3.566.803-1.8 1.442-3.652 1.57-5.753zm-20.646.014c-.045-.328-.096-.955-.224-1.565-.435-2.08-1.833-2.88-3.875-2.261-1.262.382-2.245 1.175-3.119 2.11-1.875 2.006-3.055 4.381-3.63 7.057-.223 1.042-.325 2.09-.049 3.154.408 1.575 1.617 2.399 3.235 2.191.927-.12 1.721-.534 2.49-1.014 1.941-1.211 3.124-3.032 4.024-5.072.606-1.374 1.148-2.766 1.148-4.6zM11.715.048l.64.172c1.904.505 3.14 2.011 3.339 4.08.05.517.074 1.036.116 1.643.182-.171.328-.304.469-.443 1.693-1.671 3.506-3.186 5.65-4.256C23.006.708 24.14.425 25.36.55c2.096.213 3.293 1.59 3.18 3.703-.069 1.274-.527 2.435-1.028 3.59-1.963 4.53-3.926 9.06-5.85 13.605-.546 1.291-.96 2.638-1.427 3.962-.05.145-.058.308-.067.464-.039.64.383.994.998.792a4.216 4.216 0 0 0 1.018-.514c1.871-1.258 3.22-3.008 4.493-4.827.34-.485.747-.931 1.022-1.449.372-.698.7-1.43.951-2.18.725-2.162 1.626-4.233 3.172-5.94 1.376-1.519 2.986-2.677 5.146-2.767 3.05-.128 4.983 1.31 5.59 4.187.448 2.12.283 4.234-.145 6.328-.236 1.152-.59 2.28-.896 3.441 1.235.04 2.156-.636 2.931-1.544.427-.5.744-1.093 1.147-1.616 1.68-2.179 2.276-4.851 3.35-7.305.404-.923.77-1.863 1.148-2.797.199-.49.51-.767 1.08-.67.411.071.832.083 1.244.15.802.128.937.313.846.992.929-.374 1.871-.847 2.868-1.124.703-.196 1.488-.225 2.22-.155 1.583.15 2.388.965 2.91 2.747.535-.387 1.046-.806 1.602-1.153 1.886-1.175 3.91-1.591 6.094-1.023 1.554.405 2.52 1.663 2.437 3.263-.032.601-.128 1.223-.33 1.787-.947 2.65-1.951 5.28-2.91 7.926a24.312 24.312 0 0 0-.717 2.396c-.127.51-.167 1.081.303 1.451.473.373 1.036.255 1.541.03 1.116-.495 1.928-1.383 2.67-2.298 1.075-1.322 2.037-2.735 3.074-4.09 1.285-1.677 1.8-3.705 2.59-5.607a346.563 346.563 0 0 0 1.86-4.591c.205-.514.517-.803 1.11-.7.377.066.762.082 1.14.136.873.126 1.005.288.923 1.156 1.068-.72 2.193-1.272 3.45-1.405.733-.076 1.51-.067 2.225.095 1.347.307 2.06 1.276 2.304 2.671.361-.28.691-.552 1.038-.801 2.025-1.458 4.236-2.05 6.704-1.414 1.52.391 2.491 1.648 2.418 3.224a6.429 6.429 0 0 1-.337 1.838c-.946 2.65-1.952 5.28-2.911 7.925a23.865 23.865 0 0 0-.714 2.398c-.122.492-.153 1.045.282 1.412.465.392 1.043.306 1.53.053.519-.269 1.069-.574 1.444-1.004 1.27-1.452 2.452-2.98 3.699-4.452.948-1.12 1.052-2.592 1.677-3.845 1.462-2.926 3.247-5.583 6.2-7.206 1.952-1.07 4.001-1.365 6.123-.452 1.238.533 1.851 1.212 2.411 2.75.114-.159.248-.279.298-.427.325-.97 1.882-.864 2.424-.025.127.197.096.584-.003.825-.522 1.27-1.165 2.494-1.625 3.784-.85 2.389-1.63 4.804-2.375 7.228-.162.529-.112 1.144-.065 1.712.077.922.76 1.306 1.543.843a7.88 7.88 0 0 0 1.641-1.267c1.729-1.783 3.173-3.798 4.45-5.915.537-.89.751-1.974 1.137-2.96.858-2.19 1.993-4.2 4.008-5.537 2.09-1.386 4.34-2.03 6.75-.887.778.37 1.433 1 2.161 1.523.108-.313.254-.75.407-1.185 1.034-2.934 2.074-5.867 3.101-8.804.14-.402.37-.592.81-.566.52.03 1.045.002 1.568.023.668.027.78.154.566.813-.577 1.786-1.132 3.582-1.8 5.334-1.57 4.114-2.796 8.337-4.083 12.542-.448 1.463-.971 2.903-1.386 4.374a5.144 5.144 0 0 0-.17 1.844c.1 1.052.808 1.39 1.747.892 1.194-.633 2.119-1.589 2.919-2.65 1.17-1.556 2.347-3.112 3.41-4.741.735-1.129 1.954-.802 2.377.221v.628c-.302.601-.542 1.245-.92 1.796-1.021 1.492-2.06 2.976-3.171 4.401-.938 1.202-2.09 2.192-3.479 2.872-1.81.885-3.593.648-4.788-.679-.345-.382-.604-.842-.931-1.307-.146.105-.3.21-.45.322-1.278.955-2.671 1.635-4.29 1.748-2.406.169-4.137-.57-5.235-2.86-.267-.556-.431-1.161-.616-1.673-.99 1.055-1.966 2.194-3.053 3.216a6.499 6.499 0 0 1-2.011 1.258c-1.365.544-2.735.422-3.857-.598-.523-.476-.868-1.148-1.29-1.726-1.608 1.295-3.339 2.499-5.572 2.682-2.22.183-4.002-.567-5.204-2.48-.358-.568-.58-1.223-.872-1.855-.096.113-.189.239-.299.347-1.07 1.046-2.096 2.143-3.226 3.119-1.119.966-2.458 1.292-3.953 1.047-2.242-.367-3.525-2.082-3.084-4.31.202-1.02.463-2.039.82-3.013.904-2.463 1.887-4.897 2.814-7.353.15-.398.228-.843.246-1.27.03-.707-.317-1.067-1.014-1.134-.764-.074-1.485.084-2.172.426-1.568.782-2.737 2.022-3.566 3.503-.922 1.648-1.66 3.403-2.428 5.132-1.004 2.255-1.967 4.529-2.93 6.802-.182.43-.439.627-.914.585-.467-.041-.94-.035-1.41-.038-.848-.007-.898-.069-.6-.835 1.412-3.628 2.854-7.245 4.224-10.889.475-1.263.82-2.581 1.136-3.896.23-.954-.283-1.467-1.262-1.396-.275.02-.554.069-.82.143-2.2.619-3.7 2.12-4.828 4-1.408 2.344-2.495 4.849-3.468 7.403-.637 1.673-1.306 3.333-1.96 5-.112.284-.237.536-.617.528-.68-.015-1.36.01-2.04-.013-.508-.017-.653-.231-.51-.72.075-.257.2-.5.301-.748-.335.203-.6.45-.875.687-1.285 1.106-2.708 1.711-4.462 1.404-2.027-.354-3.246-1.714-3.114-3.765.057-.89.27-1.797.57-2.64.813-2.274 1.73-4.511 2.565-6.778.327-.89.626-1.807.787-2.738.123-.715-.3-1.094-1.025-1.16-.765-.07-1.486.094-2.17.439-1.548.78-2.692 2.014-3.533 3.469-.822 1.424-1.47 2.953-2.139 4.461a474.255 474.255 0 0 0-3.219 7.472c-.192.454-.455.654-.95.61a10.236 10.236 0 0 0-1.41-.034c-.922.046-.814-.216-.582-.813 1.412-3.628 2.852-7.246 4.22-10.89.481-1.28.832-2.614 1.153-3.946.222-.924-.293-1.438-1.24-1.372-.293.02-.589.074-.871.153-2.18.616-3.667 2.106-4.79 3.968-1.412 2.342-2.496 4.848-3.474 7.4a275.465 275.465 0 0 1-1.99 5.044c-.08.196-.298.462-.466.473-.763.05-1.532.027-2.298.013-.33-.006-.467-.22-.41-.529.037-.202.126-.395.198-.589.284-.757.57-1.514.887-2.354-1.394.513-2.722.734-4.059.249-.12.17-.205.301-.302.424-1.607 2.042-3.53 3.4-6.306 3.232-2.633-.159-4.64-1.687-5.313-4.227l-.15-.58c-.066.029-.087.031-.097.043-.066.08-.13.163-.196.243-1.938 2.326-3.866 4.666-7.138 5.136h-.21c-.15-.031-.298-.075-.45-.092-1.448-.158-2.462-1.108-2.707-2.542-.205-1.193.066-2.32.493-3.418.415-1.068.855-2.127 1.301-3.182a889.94 889.94 0 0 1 2.702-6.325c1.213-2.807 2.454-5.603 3.647-8.418.212-.5.303-1.07.349-1.615.045-.544-.264-.84-.813-.875-.271-.018-.576-.016-.818.089-.681.295-1.408.556-1.993.995-3.233 2.428-6.031 5.268-7.978 8.856-2.563 4.725-4.88 9.571-6.997 14.51-.431 1.006-1.062 1.405-2.079 1.452-1.067.05-1.429-.4-.994-1.365.722-1.6 1.496-3.177 2.207-4.781 1.832-4.13 3.644-8.27 5.457-12.408.718-1.639 1.214-3.331 1.211-5.143-.003-1.957-.776-2.68-2.733-2.544-1.184.081-2.234.516-3.166 1.225C4.94 5.69 3.856 7.803 3.272 10.158c-.511 2.06-.584 4.096 1.368 5.609.124.096.161.482.074.641-.266.483-.606.926-.933 1.374-.216.297-.49.327-.827.168-1.19-.56-2.042-1.438-2.516-2.663-.18-.464-.294-.953-.438-1.43V11.66c.03-.117.077-.232.089-.351.166-1.734.682-3.363 1.475-4.906C2.868 3.87 4.67 1.824 7.4.801 8.377.434 9.438.293 10.46.049h1.255z"/>
</svg>
