<svg xmlns="http://www.w3.org/2000/svg" xmlns:xlink="http://www.w3.org/1999/xlink" width="45" height="42" viewBox="0 0 45 42">
    <defs>
        <path id="b" d="M228.746 258.155l-4.173-5.564a1.043 1.043 0 0 0-.835-.417h-1.043v-3.13c0-.577-.468-1.044-1.044-1.044h-12.52c-.577 0-1.044.467-1.044 1.043v3.13h-1.044a1.052 1.052 0 0 0-.18.017l-.025.004a1.05 1.05 0 0 0-.09.023l-.009.002c-.03.01-.06.02-.088.032l-.007.002a1.036 1.036 0 0 0-.081.038l-.012.006a1.1 1.1 0 0 0-.07.042l-.018.01-.062.047-.02.015c-.024.02-.048.041-.07.064l-.005.004-.005.005a1.084 1.084 0 0 0-.064.07l-.017.024-.044.059-.012.02a1.12 1.12 0 0 0-.04.068l-.008.015c-.013.025-.025.05-.036.077l-.004.01a.995.995 0 0 0-.03.086l-.004.012a1.067 1.067 0 0 0-.021.087l-.005.027a1.025 1.025 0 0 0-.016.178v11.128c0 .576.467 1.043 1.043 1.043h2.595a3.484 3.484 0 0 0 3.318 2.435 3.484 3.484 0 0 0 3.318-2.435h2.407a3.484 3.484 0 0 0 3.318 2.435 3.484 3.484 0 0 0 3.318-2.435h2.595c.576 0 1.043-.467 1.043-1.043v-5.564c0-.226-.073-.446-.209-.626zm-18.572-3.894v2.086h-2.087v-2.086H210.174zm4.173 10.084c0 .415-.184.788-.474 1.043a1.384 1.384 0 0 1-1.834 0 1.387 1.387 0 0 1 0-2.087 1.384 1.384 0 0 1 1.834 0c.29.255.474.628.474 1.044zm0-10.084v2.086h-2.086v-2.086h2.086zm4.174 0v2.086h-2.087v-2.086h2.087zm4.87 10.084c0 .415-.185.788-.475 1.043a1.384 1.384 0 0 1-1.834 0 1.387 1.387 0 0 1 0-2.087 1.384 1.384 0 0 1 1.834 0c.29.255.474.628.474 1.044z"/>
        <filter id="a" width="261.2%" height="286.7%" x="-71.9%" y="-83.2%" filterUnits="objectBoundingBox">
            <feMorphology in="SourceAlpha" operator="dilate" radius="1" result="shadowSpreadOuter1"/>
            <feOffset dx="2" dy="2" in="shadowSpreadOuter1" result="shadowOffsetOuter1"/>
            <feGaussianBlur in="shadowOffsetOuter1" result="shadowBlurOuter1" stdDeviation="5.5"/>
            <feComposite in="shadowBlurOuter1" in2="SourceAlpha" operator="out" result="shadowBlurOuter1"/>
            <feColorMatrix in="shadowBlurOuter1" values="0 0 0 0 0 0 0 0 0 0 0 0 0 0 0 0 0 0 0.496914629 0"/>
        </filter>
    </defs>
    <g fill="none" fill-rule="nonzero" transform="translate(-197 -239)">
        <use fill="#000" filter="url(#a)" xlink:href="#b"/>
        <use fill="#EB5276" fill-rule="evenodd" xlink:href="#b"/>
        <path stroke="#FFF" d="M205.962 252.116a13.252 13.252 0 0 1 .108-.096c.018-.015.019-.015.027-.02.034-.028.058-.046.09-.067l.03-.019a1.455 1.455 0 0 1 .229-.12l.028-.011a1.55 1.55 0 0 1 .57-.11h.543v-2.63c0-.852.69-1.543 1.543-1.543h12.521c.853 0 1.544.691 1.544 1.543v2.63h.543c.486 0 .943.23 1.235.618l4.173 5.564c.2.267.31.592.31.926v5.564c0 .852-.692 1.543-1.544 1.543h-2.246a3.984 3.984 0 0 1-3.667 2.435 3.984 3.984 0 0 1-3.666-2.435h-1.71a3.984 3.984 0 0 1-3.667 2.435 3.984 3.984 0 0 1-3.666-2.435h-2.247a1.543 1.543 0 0 1-1.543-1.543v-11.128a1.51 1.51 0 0 1 .023-.26l.007-.044a1.406 1.406 0 0 1 .077-.26 1.334 1.334 0 0 1 .059-.131l.018-.035c.03-.054.032-.057.055-.093.005-.009.005-.01.022-.035a1.472 1.472 0 0 1 .09-.122c.023-.027.047-.054.079-.088l-.004.005.007-.008a.046.046 0 0 0-.003.003zm3.712 2.644H208.587v1.087h1.087v-1.087zm4.173 9.585a.887.887 0 0 0-.304-.668.884.884 0 0 0-1.174 0 .887.887 0 0 0 0 1.336.884.884 0 0 0 1.174 0 .887.887 0 0 0 .304-.668zm0-9.584h-1.086v1.086h1.086v-1.086zm4.174 1.086h.5l-.5.5v-.5zm0-1.087h-1.087v1.087h1.087v-1.087zm4.87 9.585a.887.887 0 0 0-.305-.668.884.884 0 0 0-1.174 0 .887.887 0 0 0 0 1.336.884.884 0 0 0 1.174 0 .887.887 0 0 0 .304-.668z"/>
    </g>
</svg>
